<?xml version="1.0" encoding="UTF-8" standalone="no"?>
<!-- Created with Inkscape (http://www.inkscape.org/) -->

<svg
   xmlns:dc="http://purl.org/dc/elements/1.1/"
   xmlns:cc="http://creativecommons.org/ns#"
   xmlns:rdf="http://www.w3.org/1999/02/22-rdf-syntax-ns#"
   xmlns:svg="http://www.w3.org/2000/svg"
   xmlns="http://www.w3.org/2000/svg"
   xmlns:sodipodi="http://sodipodi.sourceforge.net/DTD/sodipodi-0.dtd"
   xmlns:inkscape="http://www.inkscape.org/namespaces/inkscape"
   width="209.71724mm"
   height="242.43341mm"
   viewBox="0 0 743.09258 859.01602"
   id="svg2"
   version="1.1"
   inkscape:version="0.91 r13725"
   sodipodi:docname="pastatransp.svg">
  <defs
     id="defs4" />
  <sodipodi:namedview
     id="base"
     pagecolor="#ffffff"
     bordercolor="#666666"
     borderopacity="1.0"
     inkscape:pageopacity="0.0"
     inkscape:pageshadow="2"
     inkscape:zoom="0.76095916"
     inkscape:cx="135.31586"
     inkscape:cy="531.22771"
     inkscape:document-units="px"
     inkscape:current-layer="layer1"
     showgrid="false"
     inkscape:window-width="1855"
     inkscape:window-height="1056"
     inkscape:window-x="65"
     inkscape:window-y="24"
     inkscape:window-maximized="1"
     fit-margin-top="0"
     fit-margin-left="0"
     fit-margin-right="0"
     fit-margin-bottom="0" />
  <metadata
     id="metadata7">
    <rdf:RDF>
      <cc:Work
         rdf:about="">
        <dc:format>image/svg+xml</dc:format>
        <dc:type
           rdf:resource="http://purl.org/dc/dcmitype/StillImage" />
        <dc:title></dc:title>
      </cc:Work>
    </rdf:RDF>
  </metadata>
  <g
     inkscape:label="Livello 1"
     inkscape:groupmode="layer"
     id="layer1"
     transform="translate(-0.56534181,-193.63976)">
    <path
       style="fill:#000000"
       d="M 144.44272,1026.9083 C 133.37069,987.47119 135.07881,990.00477 115.11866,983.41381 95.952632,977.08513 89.32429,974.09995 84.328623,969.54733 81.989689,967.4157 74.93297,965.51237 62.554028,963.67438 29.373316,958.74742 13.059477,953.02967 5.060766,943.52372 -5.8644843,930.53993 3.5873828,916.351 28.378802,908.51937 c 7.64122,-2.41391 14.840198,-4.3888 15.997751,-4.3888 1.157535,0 4.803262,-2.21802 8.101619,-4.92886 14.041328,-11.54051 18.23895,-12.59788 55.899218,-14.08117 19.99872,-0.78767 37.50024,-2.31423 41.48798,-3.61905 9.24107,-3.02346 58.53583,-3.15554 61.52659,-0.16552 1.15594,1.156 4.6976,2.10161 7.87038,2.10161 6.1913,0 14.23369,6.28869 14.23369,11.12996 0,3.20193 2.16231,3.29919 13.77481,0.61869 16.05917,-3.70699 14.92153,-5.98037 -11.71945,-23.42021 -35.20473,-23.04567 -39.00174,-28.21128 -54.79408,-74.54543 l -9.10963,-26.72731 -16.06421,-0.32901 c -8.83528,-0.18088 -19.22091,-0.78924 -23.07916,-1.35189 -10.8665,-1.58468 -27.54873,-10.3114 -35.653846,-18.65085 C 81.04837,733.90237 74.694389,714.87475 74.656849,683.70088 74.638569,668.5 74.017601,662.92858 72.106409,660.81672 64.893308,652.84634 64.166255,604.66643 70.771732,572.36998 l 1.021966,-4.99679 -5.446753,3.87842 c -2.995718,2.13314 -8.476785,4.28486 -12.180139,4.78159 -5.877788,0.78839 -7.433335,0.2032 -12.241701,-4.60516 l -5.508293,-5.5083 0.982461,-18.62323 c 0.748692,-14.19214 2.204452,-22.26678 6.11835,-33.9364 2.824733,-8.42223 4.888393,-15.57198 4.585891,-15.88833 -0.302485,-0.31633 -4.20488,1.04159 -8.672016,3.0176 -12.238372,5.41361 -20.135744,4.82411 -25.816506,-1.92709 -6.2640224,-7.44437 -5.2373492,-13.92009 5.784532,-36.48598 15.023964,-30.75962 38.301185,-57.95602 62.262867,-72.746 l 10.547812,-6.51048 -4.797128,-5.0397 C 84.774676,375.00831 75.551508,367.3493 66.917169,360.76009 52.808782,349.99343 47.266931,343.65734 47.266931,338.29357 c 0,-4.84369 5.920913,-13.43451 10.593055,-15.36978 6.661467,-2.75928 53.704644,-1.00936 72.175434,2.68477 7.11292,1.42259 13.76081,2.58741 14.7731,2.58854 1.0123,0.001 3.21941,-4.45971 4.90467,-9.91294 4.7221,-15.27969 17.08054,-40.41096 26.75243,-54.40183 8.97958,-12.98942 28.43189,-33.32418 40.64914,-42.49313 9.23967,-6.93433 19.72241,-7.26102 26.16789,-0.81555 4.10546,4.10547 4.38691,5.32817 3.5697,15.50867 l -0.88714,11.05185 16.61296,-11.51745 c 9.13712,-6.3346 20.02234,-14.08946 24.18937,-17.23302 9.89951,-7.46807 17.4551,-7.67668 24.45658,-0.67519 2.78265,2.78266 5.04038,6.90203 5.04038,9.1965 0,2.28585 0.40264,4.55873 0.89473,5.05085 0.49209,0.49209 14.65327,-4.31659 31.46927,-10.68597 39.22274,-14.85637 42.7289,-16.36461 52.25861,-22.4798 10.68679,-6.85769 19.05044,-6.86693 25.88874,-0.0287 2.78362,2.7836 5.55167,7.51395 6.15126,10.51187 0.96294,4.81468 1.62797,5.34317 5.69904,4.52897 13.64983,-2.72998 36.11545,-4.87156 43.57966,-4.15434 11.27547,1.08343 17.71606,7.12613 17.47307,16.39356 l -0.16934,6.45656 24.91993,0 24.91997,0 4.16153,4.8381 c 2.28886,2.66095 4.16157,7.00768 4.16157,9.65938 0,4.78424 0.10501,4.82939 13.6532,5.87417 22.53429,1.73771 45.40565,11.81112 47.71589,21.01585 0.59462,2.36918 2.14526,4.3076 3.44583,4.3076 5.85421,0 16.52721,5.92052 18.88197,10.47417 3.15761,6.10617 3.16434,9.80471 0.0293,15.8157 -2.37509,4.553 -2.29146,4.77423 2.16613,5.73783 12.78014,2.76271 33.36122,10.18917 42.71026,15.41163 14.26567,7.96882 24.86469,19.60545 24.86469,27.29852 0,6.97435 -4.82247,13.65016 -12.01195,16.62813 -2.87724,1.1918 -5.23149,2.72663 -5.23149,3.41071 0,0.68407 4.84972,5.29499 10.77715,10.24649 29.50852,24.65006 46.31035,58.00868 35.87496,71.2268 -4.25067,5.38431 -13.49591,7.78523 -18.88104,4.90322 -1.99662,-1.06856 -3.63026,-1.59753 -3.63026,-1.1755 0,0.42203 2.29235,7.78204 5.09406,16.35557 5.67861,17.37736 13.23778,54.0094 14.95281,72.46263 1.09651,11.79843 1.00582,12.17685 -4.15722,17.33988 -8.33685,8.33673 -15.53271,7.44181 -26.94441,-3.35092 l -9.1242,-8.62914 -0.98459,19.40629 c -1.67262,32.96482 -10.0562,63.6032 -19.51544,71.32042 -4.15428,3.38922 -4.32275,4.08222 -2.51478,10.34607 1.06583,3.69245 2.37598,14.86106 2.91139,24.81914 2.02955,37.74767 -9.4801,65.48218 -33.52435,80.78262 -12.25525,7.79869 -25.41497,10.91717 -45.69517,10.82836 l -17.58338,-0.0777 -8.32054,24.49998 c -4.5763,13.47489 -11.38769,30.90075 -15.13639,38.72393 -7.77205,16.21952 -12.2004,20.3457 -44.27281,41.25268 -17.3546,11.31272 -19.25531,13.03775 -17.65686,16.02449 1.29051,2.41132 5.73394,4.19429 15.89526,6.37782 8.25488,1.77384 15.72497,4.48881 18.01264,6.54665 2.9431,2.64738 6.0862,11.60897 12.72394,36.27829 10.79374,40.11546 27.54652,107.37043 27.54652,110.58683 0,1.4669 -1.94222,2.3578 -5.14017,2.3578 -3.91082,0 -5.35824,-0.928 -6.052,-3.8797 -11.36572,-48.3613 -34.35379,-135.35565 -36.27511,-137.27691 -0.55543,-0.55542 -6.41026,-2.27889 -13.01076,-3.82995 -14.2075,-3.33867 -12.91264,-5.3896 -14.62621,23.16725 -1.28612,21.43341 -2.73648,24.02735 -14.48489,25.90602 l -7.34537,1.17444 7.94519,7.39899 c 15.29804,14.24618 13.26579,15.85465 -50.68248,40.11306 -104.68266,39.7108 -100.33625,37.9137 -97.46123,40.2996 5.60266,4.6499 3.06346,6.9272 -7.72371,6.9272 -9.8817,0 -12.8489,-1.6677 -8.19063,-4.6035 1.41913,-0.8945 0.38834,-1.6805 -3.01761,-2.3009 -4.18079,-0.7615 -5.3514,-0.2724 -6.10296,2.55 -0.64859,2.4357 -2.63527,3.658 -6.56633,4.0401 l -5.63637,0.5476 1.22582,-6.5828 c 1.37498,-7.3841 5.88533,-16.911 13.01155,-27.4835 l 4.78944,-7.1055 -25.79464,-10.9359 c -14.18705,-6.01467 -25.84918,-11.7407 -25.91584,-12.72444 -0.0667,-0.98356 -0.78806,-0.2364 -1.60314,1.66037 -1.12099,2.60859 -1.51147,1.49502 -1.60314,-4.5714 -0.11812,-7.81525 0.19797,-8.30927 12.38028,-19.34782 l 12.5015,-11.32755 -8.09449,-0.0517 c -6.01151,-0.0379 -9.33401,-1.11737 -12.91138,-4.19447 l -4.8169,-4.14342 -7.71312,4.5202 c -4.24223,2.48615 -13.92922,6.16521 -21.52666,8.17562 l -13.81352,3.65527 -4.59869,17.29965 -4.5987,17.29964 7.38354,18.75915 c 4.06096,10.3176 9.0069,22.8329 10.99099,27.812 l 3.60745,9.0528 -5.57896,0 -5.57895,0 -11.64863,-29.7433 c -6.40677,-16.3588 -13.61506,-35.63973 -16.01846,-42.84663 l -4.36983,-13.10329 -38.29836,0.70716 c -21.0641,0.389 -39.4623,0.87959 -40.88489,1.09048 -1.42258,0.21072 4.39709,2.55616 12.93258,5.21183 8.5355,2.65566 17.22303,5.91794 19.30559,7.24948 3.91016,2.50012 10.9736,22.08967 20.00707,55.48737 l 4.31424,15.9502 -5.43218,-0.029 -5.43218,-0.029 -7.14701,-25.4566 z m 192.5139,1.8192 c 7.11292,-2.3809 24.57189,-8.962 38.79773,-14.6248 14.22583,-5.663 42.52165,-16.46651 62.8796,-24.00775 20.35794,-7.54141 37.28564,-13.9827 37.61712,-14.31412 0.33147,-0.33159 -7.26628,-6.30713 -16.8839,-13.27899 l -17.48655,-12.67617 16.94284,-1.99196 c 9.31854,-1.09565 18.61216,-2.06559 20.65248,-2.15542 3.50921,-0.1552 3.77077,-1.25843 4.8406,-20.42452 0.62201,-11.14356 1.51457,-22.29662 1.98342,-24.78432 1.46175,-7.75593 -3.40664,-7.05395 -21.23604,3.06227 -27.29147,15.48476 -42.58826,22.71873 -55.75601,26.36778 -6.80113,1.88472 -13.52807,4.39139 -14.94875,5.57049 -3.95332,3.28091 -44.46691,49.90198 -62.19554,71.57161 -8.67567,10.6042 -16.28383,21.3119 -16.90702,23.7948 -1.06613,4.2478 -0.84071,4.4467 3.81721,3.367 2.72263,-0.631 10.7699,-3.0952 17.88281,-5.4759 z m 0.21667,-44.72431 14.87358,-18.14664 -8.83837,-19.03003 -8.83838,-19.03019 -12.07041,-5.63257 c -6.63872,-3.09813 -20.9841,-10.65576 -31.8786,-16.79494 -10.8945,-6.139 -20.59848,-10.8587 -21.56443,-10.48797 -1.59274,0.61111 -0.13518,40.93919 1.68271,46.55883 0.37982,1.1741 7.49564,2.45132 17.74432,3.18486 9.41062,0.67353 18.06116,1.81245 19.22345,2.53063 1.39891,0.86459 -4.36716,6.70771 -17.05856,17.28638 -10.54448,8.78898 -18.82721,16.3247 -18.40606,16.74579 1.00384,1.00391 48.27302,21.13666 49.395,21.03816 0.47419,-0.041 7.55528,-8.24163 15.73575,-18.22231 z m -134.88733,-16.503 c 0.11243,-1.97351 -1.08521,-3.0176 -3.46128,-3.0176 -2.61523,0 -3.33788,0.76958 -2.57916,2.74671 0.5797,1.51069 1.58461,4.8085 2.23316,7.32846 l 1.17914,4.58175 1.22814,-4.31086 c 0.67547,-2.37098 1.30547,-5.66877 1.4,-7.32846 z m -26.21828,-11.74916 c 28.95639,-2.40528 54.28477,-7.51193 66.05007,-13.31658 8.34828,-4.11894 9.48388,-5.29873 9.48388,-9.85221 0,-4.52864 -1.16314,-5.76224 -9.33758,-9.9029 l -9.33758,-4.72988 -3.16391,5.20252 c -4.14582,6.81735 -4.10292,6.93013 2.44021,6.41921 3.97399,-0.31038 5.60411,0.29797 5.60411,2.09111 0,2.72429 -5.04644,4.32793 -31.90034,10.13759 -9.00971,1.94902 -22.20093,4.81695 -29.31385,6.373 -21.30597,4.6609 -44.18144,6.31472 -62.15946,4.49381 -19.946999,-2.02024 -28.52235,-3.31574 -35.265945,-5.32771 -2.845167,-0.8489 -11.768645,-2.04628 -19.82995,-2.66083 -19.361582,-1.47621 -27.589493,-6.27367 -27.589493,-16.0864 0,-3.59043 0.969942,-7.54641 2.155429,-8.79104 1.762244,-1.85023 1.369059,-2.03284 -2.155429,-1.00047 -14.564012,4.26534 -22.723243,10.91803 -19.670154,16.03829 5.117644,8.58257 36.697992,17.60245 72.810916,20.7961 24.444396,2.16181 65.919136,2.21475 91.179076,0.11725 z m 201.84602,-19.7827 c -0.23926,-0.19674 -4.02461,-0.8782 -8.41189,-1.51449 -7.78745,-1.12927 -8.06376,-1.00943 -11.63574,5.04457 -3.48003,5.89828 -3.52041,6.46921 -0.82597,11.67967 l 2.83293,5.47824 9.23784,-10.16518 c 5.08081,-5.59068 9.0421,-10.32605 8.80283,-10.52281 z m -228.48847,0.0621 c -0.78169,-4.08928 -1.41217,-4.30811 -12.26238,-4.25602 -7.22055,0.0345 -12.6503,0.97201 -14.7252,2.54237 -3.18277,2.40891 -3.15546,2.54013 0.86217,4.1467 2.282,0.91251 9.27917,1.7083 15.54928,1.76849 11.25232,0.10863 11.38952,0.0534 10.57613,-4.20154 z m 16.83158,-0.0259 c 0.92257,-2.42666 1.0561,-7.17481 0.30308,-10.77715 -1.32927,-6.35936 -1.44965,-6.43956 -9.65438,-6.43956 -4.56955,0 -10.35081,0.90683 -12.84725,2.01541 -4.42027,1.96266 -4.35635,2.01904 2.44465,2.15545 7.62441,0.15346 11.12201,2.50995 11.12201,7.49554 0,4.13273 3.07111,9.8879 5.27637,9.8879 0.93851,0 2.44848,-1.95196 3.35552,-4.33759 z m 13.78457,-1.31533 c 0,-1.00925 1.35792,-3.39488 3.0176,-5.30115 3.01243,-3.46023 3.00969,-3.46041 -1.60378,-0.13622 -5.04092,3.63251 -7.88584,9.75565 -3.80518,8.18977 1.31525,-0.50472 2.39136,-1.74347 2.39136,-2.75291 z m -81.130511,0.13278 c 3.063511,-1.91316 2.832331,-2.24924 -3.040997,-4.42174 -7.384998,-2.73171 -7.574208,-2.7586 -16.856883,-2.40097 -5.711231,0.22003 -7.425056,1.09099 -9.01585,4.58243 l -1.964147,4.31087 13.781176,0 c 7.733495,0 15.236161,-0.90855 17.096701,-2.07059 z m -39.573534,-1.64615 c 0,-2.98002 8.48408,-13.52644 10.881193,-13.52644 1.146188,0 3.053174,-1.55191 4.237729,-3.44869 1.274704,-2.04127 4.083159,-3.48042 6.881061,-3.52646 2.600034,-0.0431 7.055204,-1.07271 9.900375,-2.28889 l 5.173023,-2.21095 -3.944899,-2.11767 c -5.066451,-2.71964 -9.63727,-1.2479 -19.693554,6.34093 -9.031558,6.81564 -20.207667,22.77082 -15.950228,22.77082 1.383424,0 2.5153,-0.89683 2.5153,-1.99265 z M 199.48956,931.0604 c 2.43798,-2.25941 5.40296,-7.49727 6.58891,-11.63932 1.18591,-4.14221 2.71411,-8.30719 3.39599,-9.25558 2.01584,-2.80378 0.55549,-16.44592 -2.03754,-19.03416 -2.0401,-2.03645 -2.39356,-0.63922 -2.39938,9.48458 -0.005,9.92738 -0.6414,12.54821 -3.87978,15.99535 -2.13012,2.26734 -3.87295,5.38461 -3.87295,6.9272 0,1.54261 -0.68228,3.22642 -1.5162,3.74182 -2.00071,1.23654 -3.70647,7.88819 -2.02284,7.88819 0.72111,0 3.30583,-1.84867 5.74379,-4.10808 z M 64.903481,906.25893 c 8.951807,-6.83874 9.629216,-8.62155 1.98515,-5.22459 -5.760289,2.55979 -26.519073,23.39089 -26.519073,26.61145 0,1.19808 1.289826,2.89999 2.86629,3.78218 2.359298,1.32031 3.808109,-0.21297 8.19063,-8.66846 3.472052,-6.69873 8.160594,-12.43907 13.477003,-16.50058 z m 155.741509,12.09713 c 1.77551,-5.45323 3.81383,-10.73731 4.52959,-11.74209 1.72027,-2.41529 -0.78865,-11.55569 -3.41189,-12.43011 -1.40724,-0.46901 -2.06966,1.95766 -2.08737,7.64713 -0.0138,4.58399 -1.14417,11.43825 -2.51083,15.23182 -2.87992,7.99387 -3.22174,11.20822 -1.19197,11.20822 0.79435,0 2.89697,-4.46173 4.67247,-9.91497 z m -101.24568,4.56502 6.32525,-0.17691 -8.62172,-2.84103 c -4.74195,-1.5626 -9.51089,-3.41868 -10.59769,-4.1248 -1.08677,-0.70612 -4.05439,-0.20554 -6.594681,1.11238 -2.976173,1.54415 -3.911803,2.83327 -2.630904,3.6249 3.509895,2.16923 11.130825,4.02945 13.498025,3.29488 1.26305,-0.39194 5.14282,-0.79216 8.62172,-0.88942 z m 61.32674,-13.75852 c 1.4093,-8.81347 0.48835,-10.20536 -6.75186,-10.20536 -4.17579,0 -7.13578,1.36499 -10.28301,4.74194 l -4.41938,4.74194 4.78068,0.57524 c 6.0427,0.72734 10.79973,4.93129 10.87071,9.60702 0.0516,3.39109 0.19681,3.42541 2.3719,0.55867 1.27437,-1.6795 2.8183,-6.18831 3.43096,-10.01945 z m 76.91078,3.01449 c 0,-3.16124 -0.40274,-6.15057 -0.89497,-6.64269 -0.49223,-0.4923 -4.81892,-0.11898 -9.61487,0.82907 l -8.7199,1.72417 8.32161,4.73349 c 10.77457,6.12883 10.90813,6.1209 10.90813,-0.64404 z m 106.99941,-11.4955 c 0.89883,0 1.63423,3.87977 1.63423,8.62171 l 0,8.62171 7.75955,0 7.75953,0 0,-7.75954 c 0,-4.26775 0.77595,-7.75955 1.72435,-7.75955 0.94839,0 1.72434,3.4918 1.72434,7.75955 0,6.60993 0.51092,7.75954 3.44869,7.75954 2.86225,0 3.49799,-1.24618 3.73855,-7.32846 l 0.28987,-7.32846 0.68266,6.57147 c 0.52778,5.08044 1.34224,6.42646 3.58991,5.93279 1.59898,-0.35125 2.81198,-1.36862 2.69557,-2.26062 -0.11639,-0.89217 -0.71668,-4.97697 -1.33393,-9.07728 -0.65189,-4.3307 -0.46587,-7.04981 0.44379,-6.48751 0.86134,0.5323 2.0911,4.46915 2.73285,8.74863 0.64172,4.27931 1.61117,7.78075 2.15433,7.78075 0.54315,0 4.03256,-0.91234 7.75426,-2.02748 6.71275,-2.01109 6.75823,-2.08334 5.70235,-9.0528 -0.77906,-5.14233 -0.58195,-6.33213 0.7354,-4.4388 0.98988,1.42259 1.81165,3.94443 1.82617,5.60412 0.0309,3.53835 1.69487,3.75475 7.72957,1.00512 3.0194,-1.37569 4.11992,-2.94777 3.47843,-4.96887 -1.19451,-3.76356 3.73545,-5.85863 5.66651,-2.40805 1.20362,2.15077 1.98848,2.00834 5.14652,-0.9339 2.04947,-1.90937 4.54648,-3.47145 5.54889,-3.47145 2.62682,0 20.73809,-10.43435 20.73809,-11.94763 0,-0.69991 0.96995,-1.27964 2.15543,-1.28843 4.38917,-0.0328 20.47652,-11.3048 19.55632,-13.70284 -0.50127,-1.30619 -0.22445,-2.37493 0.61513,-2.37493 0.83961,0 1.79647,0.80974 2.12637,1.79934 0.72948,2.18854 32.4924,-18.75344 41.5127,-27.37034 6.79838,-6.49421 12.76294,-20.06806 26.27,-59.78401 4.07677,-11.98745 10.16844,-25.0359 16.5527,-35.45646 11.41905,-18.6386 19.2265,-37.48377 17.12534,-41.33648 -0.75797,-1.38982 -1.94717,-7.53744 -2.64265,-13.66128 -1.54394,-13.59491 -5.44502,-25.78856 -14.22526,-44.46399 -6.3123,-13.42614 -6.86742,-14.0744 -10.01389,-11.69415 -5.14422,3.89151 -15.33182,3.26578 -20.59949,-1.26527 -3.49116,-3.00297 -5.08373,-6.81107 -6.95457,-16.62972 -1.3346,-7.00415 -2.85645,-13.16475 -3.38191,-13.69022 -1.76025,-1.76024 -23.98879,2.9658 -47.44396,10.08713 -24.42004,7.41426 -36.4768,8.75816 -47.10502,5.25055 -6.92455,-2.28531 -8.29372,-6.12591 -2.80495,-7.86798 3.23902,-1.02802 3.08807,-1.39647 -1.99052,-4.85815 -3.02247,-2.06015 -8.54342,-8.78946 -12.26881,-14.95399 -3.72538,-6.16452 -8.01233,-12.58684 -9.52653,-14.2718 -2.60441,-2.89809 -2.87311,-2.77817 -4.97469,2.21999 -1.39663,3.32161 -4.44765,6.21365 -8.21647,7.78838 -5.91119,2.46984 -8.55751,2.25367 -16.01037,-1.30793 -3.23447,-1.54571 -4.43898,-1.03572 -8.24949,3.49282 -2.45411,2.91654 -6.17097,5.54729 -8.25971,5.8461 -2.89546,0.41423 -4.04248,2.05804 -4.82804,6.91923 -1.28413,7.94649 -3.80245,11.05008 -10.85483,13.37757 -11.0195,3.63674 -45.91661,-8.51709 -73.28138,-25.52219 -14.27784,-8.87259 -14.41026,-8.91442 -13.24165,-4.18327 0.64924,2.62842 1.70746,5.2808 2.35164,5.8942 0.64419,0.61338 11.45265,5.57119 24.01879,11.01734 12.56616,5.44612 22.84755,10.89773 22.84755,12.11467 0,3.15081 -11.09571,6.39758 -21.39777,6.26126 -4.82802,-0.0638 -16.1498,-2.37855 -25.15949,-5.14374 -24.70126,-7.58112 -39.59955,-11.34301 -40.67253,-10.27003 -0.52971,0.52971 -0.13484,3.94568 0.87732,7.59109 3.06134,11.02489 2.31489,18.84028 -2.31195,24.20635 -3.82159,4.43217 -5.0994,4.8164 -15.22942,4.57957 -7.13488,-0.16675 -14.23786,-1.62658 -20.02168,-4.11471 -4.93012,-2.12087 -9.36496,-3.45505 -9.8552,-2.96482 -2.74571,2.74573 -13.10829,36.28818 -15.43667,49.96674 -1.49785,8.79941 -3.95724,18.50262 -5.46534,21.56265 -2.53152,5.13665 -2.50802,6.19539 0.3063,13.79475 1.67654,4.52709 7.65051,15.80412 13.27549,25.06005 7.87061,12.95102 12.61241,23.87767 20.57856,47.41944 16.45386,48.62476 15.55014,47.57291 70.32287,81.84769 14.87163,9.3061 20.87568,11.19358 20.87568,6.56233 0,-0.97805 0.80325,-1.77831 1.785,-1.77831 1.1858,0 1.13892,1.20721 -0.13967,3.59629 -1.0586,1.97798 -1.66785,3.76475 -1.35392,3.97064 10.04149,6.58302 10.23217,6.63268 12.83731,3.34385 2.34803,-2.9645 2.46738,-2.90259 2.01215,1.04133 -0.36904,3.19745 0.90262,5.00749 5.35716,7.62557 5.41838,3.18451 5.99366,3.22434 7.94963,0.54937 3.01498,-4.12326 3.93896,-3.57578 3.13566,1.85833 -0.62693,4.24084 -0.3152,4.04151 2.95031,-1.88713 4.57499,-8.30599 6.09701,-7.32363 2.39194,1.5438 -2.5361,6.06986 -2.53809,6.45215 -0.0225,4.36449 2.33067,-1.93419 2.75699,-1.86229 2.75699,0.46522 0,2.56048 8.06304,8.0151 11.84775,8.0151 0.92015,0 2.18427,-2.32786 2.80917,-5.17303 0.62489,-2.84516 1.79631,-5.17302 2.60315,-5.17302 0.80684,0 0.75509,2.48218 -0.11502,5.51581 -1.13947,3.97325 -0.98523,5.88813 0.55146,6.84652 1.5609,0.97322 2.26278,-0.85407 2.61546,-6.80927 0.77631,-13.1088 2.76903,-14.22652 3.76769,-2.11335 0.89295,10.83129 1.09335,11.22892 6.09632,12.09576 5.09632,0.8832 5.18076,0.77457 5.69424,-7.3195 0.2866,-4.51881 1.25654,-8.21597 2.15538,-8.21597 z m 10.72558,-5.17304 c 0,-4.26775 0.33628,-6.01364 0.74728,-3.87978 0.41102,2.13388 0.41102,5.62568 0,7.75955 -0.411,2.13388 -0.74728,0.38798 -0.74728,-3.87977 z m -36.68085,-2.21802 c 0,-3.81908 3.66746,-11.57673 5.47296,-11.57673 0.80887,0 0.27156,2.86999 -1.19409,6.37766 -3.18436,7.62126 -4.27887,8.95107 -4.27887,5.19907 z m 18.96777,1.41431 c 0,-2.05854 5.95651,-12.99104 7.07804,-12.99104 0.69645,0 0.0471,3.10382 -1.44312,6.89738 -1.49014,3.79355 -3.36761,6.89737 -4.17214,6.89737 -0.80452,0 -1.46278,-0.36177 -1.46278,-0.80371 z m 48.4537,-6.64028 c -1.23207,-3.62009 -1.79653,-7.0255 -1.25434,-7.56763 1.3897,-1.38982 4.79284,8.13631 4.08229,11.42706 -0.33038,1.53 -1.56888,-0.16037 -2.82795,-3.85943 z m -19.80804,-1.50104 c -0.6046,-3.02313 -0.3136,-6.28214 0.64663,-7.24224 1.1783,-1.17842 1.7459,0.60851 1.7459,5.49634 0,8.635 -0.88549,9.28111 -2.39253,1.7459 z m 11.48389,-6.57407 c 0,-4.26774 0.33628,-6.01364 0.74727,-3.87976 0.41102,2.13387 0.41102,5.62567 0,7.75954 -0.41099,2.13388 -0.74727,0.38799 -0.74727,-3.87978 z m 22.98487,3.17642 c -3.06145,-4.37086 -3.50885,-6.62509 -1.31484,-6.62509 1.6742,0 5.95039,8.69585 4.82809,9.81823 -0.41296,0.41298 -1.99393,-1.02391 -3.51325,-3.19314 z m -106.223,-1.53777 c 0,-2.59341 5.28043,-12.45216 6.18497,-11.54759 0.41673,0.41679 -0.42686,3.59269 -1.87461,7.05757 -2.60123,6.22557 -4.31036,8.00596 -4.31036,4.49002 z m 34.48687,0.89236 c 0,-2.8888 5.68759,-13.39816 6.33242,-11.70072 0.42592,1.12118 -0.45657,4.41898 -1.96111,7.32847 -2.49574,4.82626 -4.37131,6.70217 -4.37131,4.37225 z m 61.50845,-1.97007 c -0.48552,-1.73107 -1.38464,-4.89335 -1.99799,-7.02722 -0.61334,-2.13387 -0.37329,-3.87977 0.53346,-3.87977 0.90673,0 2.173,2.79499 2.8139,6.21126 1.22014,6.50405 0.17645,10.13603 -1.34937,4.69573 z m -104.61703,-3.21072 c 0,-2.12958 5.91608,-11.14495 7.31343,-11.14495 1.69304,0 -3.13125,9.68908 -5.57683,11.20063 -0.95513,0.59026 -1.7366,0.56524 -1.7366,-0.0551 z m 69.44337,-5.97193 c 0,-4.26774 0.33628,-6.01364 0.74728,-3.87977 0.41102,2.13387 0.41102,5.62568 0,7.75954 -0.411,2.13388 -0.74728,0.38799 -0.74728,-3.87977 z m -47.02691,3.52974 c 0,-2.87672 3.94628,-10.4271 5.44983,-10.4271 2.02496,0 1.82862,1.15857 -1.18325,6.98289 -2.66266,5.14905 -4.26658,6.44388 -4.26658,3.44421 z m 64.27035,-6.97843 c 0,-4.26775 0.33627,-6.01364 0.74727,-3.87977 0.41101,2.13388 0.41101,5.62568 0,7.75954 -0.411,2.13389 -0.74727,0.38799 -0.74727,-3.87977 z m -53.92429,3.81719 c 0,-3.1471 3.8804,-10.71455 5.4941,-10.71455 0.82051,0 0.20928,2.52185 -1.35826,5.60411 -3.44474,6.77339 -4.13584,7.62729 -4.13584,5.11044 z m 20.69212,0.43815 c 0,-2.88879 5.68759,-13.39815 6.33241,-11.7007 0.42593,1.12116 -0.45656,4.41897 -1.96109,7.32846 -2.49575,4.82627 -4.37132,6.70217 -4.37132,4.37224 z m 62.13702,-2.4177 c -2.2496,-4.20343 -2.27468,-5.79259 -0.0699,-4.43001 2.76927,1.71158 5.55968,7.76541 3.57929,7.76541 -0.94837,0 -2.5276,-1.50105 -3.50936,-3.3354 z m 20.63146,-0.1138 c -1.10206,-2.05922 -1.61578,-4.13205 -1.14158,-4.60625 0.47419,-0.47419 1.76386,0.82269 2.86593,2.8819 1.10205,2.0592 1.61577,4.13205 1.14158,4.60623 -0.4742,0.4742 -1.76387,-0.82268 -2.86593,-2.88188 z m -10.4251,-5.32081 c -2.81848,-5.26632 -0.87195,-5.87139 2.47173,-0.76821 1.57292,2.40047 2.09329,4.36467 1.15642,4.36467 -0.93689,0 -2.56954,-1.61846 -3.62815,-3.59646 z m 33.35577,1.48259 c -3.32573,-4.29414 -4.14246,-6.50785 -2.40099,-6.50785 1.94516,0 6.06598,6.74167 4.85872,7.94888 -0.41587,0.41591 -1.52187,-0.23261 -2.45773,-1.44103 z m 12.41836,-3.05916 c -3.39363,-3.54232 -4.14118,-5.17303 -2.37123,-5.17303 1.42168,0 4.30592,2.32787 6.40945,5.17303 2.10352,2.84517 3.17056,5.17303 2.37123,5.17303 -0.79936,0 -3.6836,-2.32786 -6.40945,-5.17303 z m -67.69677,0.0242 c -1.17651,-1.88402 -2.13913,-3.86977 -2.13913,-4.41277 0,-1.82797 3.41456,1.10359 5.22444,4.48536 2.36024,4.41002 -0.32524,4.3469 -3.08531,-0.0725 z m 46.14249,-0.0242 c -1.10206,-2.05921 -1.61578,-4.13204 -1.14159,-4.60623 0.4742,-0.4742 1.76387,0.82268 2.86593,2.88188 1.10207,2.05922 1.61579,4.13204 1.14159,4.60624 -0.47419,0.4742 -1.76387,-0.82268 -2.86593,-2.88189 z m -175.81074,0.43108 c 0.12881,-2.30493 6.67819,-13.42505 6.75281,-11.46567 0.13295,3.49162 -3.69447,12.75894 -5.26945,12.75894 -0.85559,0 -1.52312,-0.58197 -1.48336,-1.29327 z m 15.44681,0.37557 c 0,-2.88879 5.68759,-13.39816 6.33241,-11.7007 0.42593,1.12116 -0.45656,4.41897 -1.9611,7.32845 -2.49576,4.82627 -4.37131,6.70218 -4.37131,4.37225 z m 24.21702,-2.18561 c -0.10155,-2.98811 5.11802,-12.96948 6.21081,-11.87658 0.47283,0.47281 -0.71402,3.8427 -2.63746,7.48865 -1.92343,3.64595 -3.53145,5.62049 -3.57335,4.38793 z m 124.13717,-1.95644 c -2.2496,-4.20344 -2.27469,-5.79258 -0.07,-4.43001 2.76928,1.71158 5.55967,7.76541 3.57931,7.76541 -0.94839,0 -2.52762,-1.50103 -3.50937,-3.3354 z m -175.94369,0.18726 c 0,-1.7452 7.47708,-8.92227 9.29509,-8.92227 1.65503,0 -6.24567,10.12104 -8.00183,10.25054 -0.71129,0.0517 -1.29326,-0.54523 -1.29326,-1.32827 z m 37.93556,0.0672 c 0,-3.14709 3.8804,-10.71455 5.4941,-10.71455 0.8205,0 0.20928,2.52185 -1.35827,5.60412 -3.44473,6.77339 -4.13583,7.62728 -4.13583,5.11043 z m 114.22145,-5.51824 c -1.17652,-1.88384 -2.13914,-3.8696 -2.13914,-4.41259 0,-1.82798 3.41458,1.10357 5.22443,4.48536 2.36026,4.41001 -0.32522,4.34689 -3.08529,-0.0725 z m 75.4453,-1.83402 c -3.31331,-2.74669 -5.09751,-5.01473 -3.96491,-5.04024 2.55523,-0.0569 12.06013,7.95611 10.86228,9.15798 -0.48027,0.48195 -3.58408,-1.37102 -6.89737,-4.11774 z m -34.06106,-5.06335 c -1.17652,-1.88385 -2.13913,-3.8696 -2.13913,-4.4126 0,-1.82797 3.41456,1.10358 5.22443,4.48537 2.36025,4.41 -0.32524,4.34689 -3.0853,-0.0725 z m -188.30622,-3.04088 c 0.12692,-2.64566 8.54212,-11.61466 8.49378,-9.05281 -0.0269,1.42259 -1.50528,4.33242 -3.28543,6.46629 -3.27828,3.92961 -5.32138,4.94422 -5.20835,2.58652 z m 205.90123,-2.9219 c -1.62681,-2.48288 -2.52678,-4.94541 -1.9999,-5.4722 0.52688,-0.52696 2.28902,1.0734 3.91585,3.55628 1.62681,2.48288 2.52679,4.94541 1.99989,5.4722 -0.52687,0.52696 -2.28901,-1.0734 -3.91584,-3.55628 z M 349.02703,828.25788 c 0,-0.94839 3.87977,-1.72434 8.62171,-1.72434 4.74196,0 8.62173,0.77595 8.62173,1.72434 0,0.94839 -3.87977,1.72435 -8.62173,1.72435 -4.74194,0 -8.62171,-0.77596 -8.62171,-1.72435 z m -41.38424,-18.1056 0,-4.31086 74.14676,0 74.14677,0 0,4.31086 0,4.31086 -74.14677,0 -74.14676,0 0,-4.31086 z m -32.76252,-10.43177 c 0,-2.138 5.49244,-11.37789 6.28949,-10.58091 0.92528,0.92528 -4.10719,11.52878 -5.4716,11.52878 -0.44985,0 -0.81789,-0.42659 -0.81789,-0.94787 z m 202.88464,-9.39818 c -3.65645,-6.18987 -1.01226,-7.0098 2.97608,-0.92288 3.10609,4.74041 3.42453,6.09591 1.43226,6.09591 -0.74392,0 -2.72767,-2.32787 -4.40834,-5.17303 z m -193.96694,2.15542 c 0.32087,-0.71129 1.70533,-4.20308 3.07662,-7.75955 2.0993,-5.44459 5.24911,-8.76637 5.24911,-5.53548 0,1.77521 -6.97232,14.5883 -7.93829,14.5883 -0.53394,0 -0.70829,-0.58197 -0.38744,-1.29327 z m 16.94744,-0.0621 c 0,-3.1471 3.88039,-10.71455 5.49411,-10.71455 0.82051,0 0.20928,2.52184 -1.35827,5.60411 -3.44474,6.7734 -4.13584,7.62729 -4.13584,5.11044 z m 8.62172,-1.31637 c 0,-2.13801 5.49245,-11.37791 6.2895,-10.58091 0.92527,0.92528 -4.10719,11.52879 -5.4716,11.52879 -0.44985,0 -0.8179,-0.4266 -0.8179,-0.94788 z m 146.77473,-4.76849 c -2.79647,-7.03394 -2.23942,-9.76635 0.8349,-4.09532 1.4447,2.66497 2.28207,5.76879 1.86086,6.89738 -0.42125,1.12858 -1.63433,-0.13278 -2.69576,-2.80206 z m 12.75497,0.63128 c -0.58787,-1.85212 -2.0863,-2.9695 -3.33828,-2.48893 -1.24938,0.47938 -2.67355,-0.53022 -3.16477,-2.24353 -0.49125,-1.71331 -1.45219,-4.47295 -2.13547,-6.13263 -0.69518,-1.68882 -0.48397,-3.01761 0.47961,-3.01761 0.94706,0 2.20879,1.9399 2.80386,4.31086 0.59508,2.37098 2.20381,4.31087 3.57496,4.31087 2.18112,0 6.06301,4.89541 6.06301,7.64608 0,2.46874 -3.33114,0.6137 -4.28292,-2.38511 z m -29.21462,-3.29073 c -1.49252,-2.88621 -2.67937,-6.25627 -2.63745,-7.48883 0.0419,-1.23257 1.64992,0.74198 3.57335,4.38794 1.92344,3.64595 3.11029,7.01583 2.63746,7.48882 -0.47284,0.47282 -2.08086,-1.50174 -3.57336,-4.38793 z m -144.05499,1.37689 c -0.0302,-1.47846 1.08442,-4.1943 2.47685,-6.03521 2.02398,-2.67601 2.54267,-2.80809 2.58651,-0.65921 0.0302,1.47844 -1.08443,4.19429 -2.47684,6.0352 -2.02399,2.676 -2.54267,2.80826 -2.58652,0.65922 z m 24.17123,-5.23856 c 1.9822,-3.88547 3.97112,-6.69752 4.4198,-6.24868 1.1607,1.16066 -4.84912,13.31314 -6.58382,13.31314 -0.79201,0 0.18179,-3.179 2.16402,-7.06446 z m 106.23136,-1.91316 c -0.93195,-3.5637 -0.21027,-6.28231 1.24062,-4.67349 1.75568,1.94679 2.82936,8.47808 1.39371,8.47808 -0.90169,0 -2.08714,-1.71211 -2.63433,-3.80459 z m 15.42282,-2.77862 c -1.63306,-3.14656 -2.65919,-6.63837 -2.28026,-7.75953 0.37891,-1.12118 2.02507,0.53592 3.65815,3.6825 1.63305,3.14641 2.65917,6.63821 2.28025,7.75955 -0.37891,1.12116 -2.02507,-0.53593 -3.65814,-3.68252 z m -133.80984,1.75507 c 0,-1.79177 3.73613,-5.51791 5.5325,-5.51791 0.76675,0 0.42492,1.55191 -0.75963,3.4487 -2.17575,3.48385 -4.77287,4.60985 -4.77287,2.06921 z m 20.75413,0.78336 c -0.0962,-2.26217 5.69008,-11.47429 7.20714,-11.47429 0.7439,0 1.3487,0.58196 1.34399,1.29325 -0.012,1.85488 -8.47665,11.93246 -8.55113,10.18104 z m 12.6528,-3.62439 c 1.52096,-2.32131 2.36904,-5.25339 1.88462,-6.51577 -0.48444,-1.2624 0.36361,-3.82495 1.88455,-5.69448 2.74643,-3.37609 2.7569,-3.37574 1.53217,0.0499 -0.67824,1.89678 -1.16847,4.93024 -1.08941,6.74115 0.18368,4.20636 -2.69966,9.64012 -5.11531,9.64012 -1.08705,0 -0.71106,-1.75659 0.90338,-4.2205 z m 68.60612,-3.62026 c -2.39356,-5.25321 -2.58651,-8.24374 -0.44659,-6.92117 2.13024,1.31654 5.49293,11.31325 3.80557,11.31325 -0.74682,0 -2.25837,-1.97645 -3.35898,-4.39208 z m -57.10108,-0.92874 c 1.05859,-1.97799 2.26807,-3.25296 2.68777,-2.83327 1.20686,1.20688 -1.23975,6.42973 -3.01196,6.42973 -0.88085,0 -0.73507,-1.61707 0.32419,-3.59646 z m 15.73201,1.90179 c -6.21621,-1.48863 -14.4139,-8.41635 -18.90927,-15.97983 -1.62173,-2.72861 -4.32796,-4.74195 -6.37378,-4.74195 -5.5253,0 -10.75807,-4.58348 -13.00473,-11.39085 -1.70696,-5.17216 -1.6128,-6.64285 0.56474,-8.82053 3.28247,-3.28245 6.39289,-1.49948 6.39289,3.66458 0,4.62882 5.95206,10.84957 7.69013,8.03734 2.39493,-3.87512 6.06659,-1.51105 10.60546,6.8284 5.04785,9.27456 13.06984,15.4758 20.01958,15.4758 6.6952,0 15.37695,-6.97808 19.84455,-15.95018 4.24312,-8.52152 7.75532,-10.2688 10.56146,-5.25458 2.53475,4.52933 7.14994,-0.28469 7.14994,-7.45814 0,-4.56468 0.70579,-5.82396 3.2642,-5.82396 6.52641,0 7.34684,11.96211 1.23932,18.06956 -2.26502,2.26509 -6.92074,4.644 -10.34607,5.28667 -7.187,1.34826 -7.06219,1.06668 -3.5142,7.92784 1.49252,2.8862 2.28039,5.68084 1.75082,6.21039 -0.52957,0.52955 -2.04398,-1.60829 -3.36537,-4.75107 -2.28997,-5.44617 -2.49208,-5.54636 -4.31551,-2.13923 -4.29204,8.01974 -18.6894,13.3397 -29.25416,10.80974 z m 50.95632,-0.6018 c -1.92139,-4.88523 -1.60816,-7.38088 0.64373,-5.12906 1.03732,1.03736 1.59635,3.32643 1.24232,5.08681 -0.62091,3.08726 -0.68784,3.08865 -1.88605,0.0414 z m 7.66831,-4.06117 c -1.1073,-2.06887 -1.98219,-5.17063 -1.94422,-6.89272 0.0512,-2.31993 0.7494,-1.87591 2.69575,1.71435 1.4447,2.66496 2.31959,5.7667 1.94422,6.89288 -0.39273,1.17825 -1.53717,0.45039 -2.69575,-1.71451 z m -73.03553,-65.51043 c 0.74091,-13.1124 -2.52735,-27.9999 -8.34452,-38.01069 -3.69984,-6.36706 -2.24094,-8.44173 3.23776,-4.60432 10.81994,7.5786 14.77848,31.44886 7.81898,47.14901 l -3.40209,7.6747 0.68987,-12.2087 z m -98.82555,-16.7507 c -5.95709,-2.61003 -15.87798,-12.26407 -17.34141,-16.87498 -0.88335,-2.78317 -3.12479,-3.13997 -19.725,-3.13997 -19.79219,0 -24.14778,-1.55512 -24.14778,-8.62171 0,-1.7613 1.21935,-4.42172 2.70969,-5.91205 2.33387,-2.33387 9.38323,-2.70968 50.82837,-2.70968 l 48.11869,0 2.78163,4.24531 c 2.35371,3.5922 2.45963,5.25016 0.6885,10.77714 -6.25277,19.51255 -26.60596,29.81866 -43.91269,22.23594 z m 263.68899,-0.86841 c -7.11765,-3.23268 -13.51031,-9.79577 -15.42868,-15.84005 -0.95235,-3.00056 -2.84151,-3.30649 -20.41833,-3.30649 -12.76555,0 -20.07431,-0.70545 -21.43808,-2.06922 -3.27879,-3.27878 -2.51402,-11.36614 1.26611,-13.38921 2.06283,-1.10399 21.09398,-1.78501 49.88279,-1.78501 52.97512,0 53.11036,0.0329 51.43783,12.5025 -2.77267,20.67182 -25.72929,32.77676 -45.30164,23.88748 z M 137.65107,909.91884 c 0.59797,-1.55828 0.82844,-3.09209 0.51212,-3.40833 -0.31633,-0.31641 -6.19989,-1.37292 -13.07457,-2.34786 -12.13711,-1.72141 -21.30393,-5.09268 -23.49729,-8.64156 -0.5903,-0.9551 -3.549346,-1.67002 -6.575646,-1.58863 -5.189023,0.13967 -4.940978,0.41091 4.356335,4.76643 5.422271,2.54013 10.853951,5.9164 12.070411,7.50279 4.49019,5.85553 24.30939,8.66655 26.20864,3.71716 z m 58.36132,-9.09039 c 0.23746,-5.95467 -0.50548,-7.94302 -3.95959,-10.59729 -4.48285,-3.4449 -15.97028,-4.21757 -24.08183,-1.61968 -3.21284,1.02892 -1.59072,1.42431 6.36852,1.55242 12.76308,0.20538 16.04795,3.3949 16.04795,15.58204 0,6.98772 0.2608,7.48451 2.66632,5.07905 1.46648,-1.46656 2.79787,-5.96484 2.95863,-9.99654 z m -52.53837,-6.78736 c 1.24475,-0.78975 -2.18423,-1.10116 -7.75955,-0.70508 -13.62158,0.96804 -15.41111,1.87764 -3.95472,2.01024 5.21615,0.0603 10.48756,-0.52696 11.71427,-1.30516 z m 13.99992,-148.52925 c -2.91066,-4.73038 -7.79798,-14.72244 -10.86068,-22.20454 -3.06273,-7.48209 -7.56673,-15.97846 -10.00893,-18.88086 -4.60245,-5.46962 -13.37447,-27.70865 -18.32028,-46.44595 -1.56459,-5.92743 -3.70533,-10.77715 -4.75722,-10.77715 -1.0519,0 -6.7895,5.07883 -12.75021,11.28629 l -10.837654,11.2863 0.832766,18.45857 c 1.980101,43.88989 21.703628,65.37452 60.370968,65.76181 l 11.62336,0.11553 -5.29212,-8.60085 z m 473.21283,1.96524 c 18.68981,-9.20093 28.70394,-26.78973 31.07422,-54.57856 0.56628,-6.6388 0.42247,-15.1743 -0.31968,-18.96785 l -1.3493,-6.89737 -2.89362,5.45184 c -4.77178,8.99022 -11.21565,12.98247 -19.92617,12.34514 l -7.56556,-0.55356 -3.38816,8.6218 c -3.81368,9.70425 -7.46766,14.4067 -12.77168,16.43591 -2.35923,0.9027 -4.38521,4.13204 -5.83037,9.2937 -1.21811,4.35068 -5.60473,13.85906 -9.74806,21.12958 -4.1433,7.27052 -7.53329,13.57214 -7.53329,14.0034 0,0.43108 6.52154,0.44178 14.4923,0.024 11.88415,-0.62387 16.52002,-1.75899 25.75937,-6.30747 z M 158.95015,647.20334 c 5.04663,-14.16676 16.19972,-37.93555 17.80058,-37.93555 0.77135,0 7.29585,3.10382 14.49888,6.89736 7.94855,4.1862 15.43649,6.89739 19.0497,6.89739 3.2743,0 5.95328,-0.19646 5.95328,-0.43657 0,-2.77042 -7.77037,-26.07113 -12.50524,-37.49899 -5.25128,-12.6742 -13.35991,-36.47112 -13.35991,-39.20815 0,-0.50013 6.03782,4.85918 13.41739,11.90957 7.37958,7.05041 16.88501,15.19651 21.1232,18.10243 7.16864,4.91521 24.63007,14.36919 26.53979,14.36919 0.46364,0 -0.32234,-3.29782 -1.74662,-7.32847 -2.84021,-8.03762 -12.77649,-46.53474 -12.77649,-49.50121 0,-1.01886 7.56556,4.82129 16.81235,12.97808 19.17386,16.91368 37.27227,29.38512 54.75209,37.72916 13.3415,6.3686 36.69913,13.96466 38.23085,12.43293 0.53813,-0.53814 -1.33925,-3.92404 -4.17196,-7.52425 -7.38424,-9.38485 -15.37439,-24.14108 -19.38702,-35.804 -1.90731,-5.54368 -3.46782,-10.48048 -3.46782,-10.97066 0,-0.4902 6.01365,4.93468 13.36365,12.05525 13.91237,13.47807 28.32339,23.22051 31.47061,21.27541 2.43389,-1.50421 0.74847,-10.35638 -5.38732,-28.2957 -2.72806,-7.97601 -4.96007,-15.66183 -4.96007,-17.07961 0,-3.86639 5.47775,1.55142 17.52765,17.33587 5.60277,7.33919 13.05207,15.29094 16.55402,17.67057 7.80119,5.30105 8.02442,4.91566 9.83098,-16.97255 l 1.26048,-15.27186 6.85111,6.65014 c 10.07203,9.77657 24.59744,27.89384 31.33713,39.08624 5.23075,8.68652 6.02227,9.36229 6.94277,5.92752 1.39952,-5.22216 1.13645,-29.34733 -0.4406,-40.40655 -1.11272,-7.80305 -0.93219,-8.75562 1.41913,-7.48853 4.70402,2.53495 26.94163,26.46853 32.08726,34.53443 2.72261,4.26775 5.2399,8.1463 5.59399,8.61902 0.35408,0.47269 1.74428,-0.64557 3.08932,-2.48501 1.55888,-2.13193 2.45241,-7.75744 2.46451,-15.51639 0.0103,-6.69454 0.50396,-15.10648 1.09671,-18.69318 1.05378,-6.37632 1.15429,-6.45297 4.52116,-3.44869 1.89388,1.68992 9.08204,10.49789 15.97368,19.57324 13.65516,17.982 20.91569,24.29091 23.38899,20.32352 1.53474,-2.4618 2.99072,-11.49325 3.71265,-23.02942 0.38694,-6.18331 1.16939,-4.66591 7.55799,14.65691 3.9195,11.85487 8.11753,27.17997 9.32895,34.05579 1.21143,6.87581 2.7739,12.50148 3.47216,12.50148 2.32907,0 12.38796,-12.6209 15.37337,-19.28902 l 2.94679,-6.58191 2.1905,9.91788 c 1.20477,5.45482 6.04239,18.45335 10.75029,28.88563 11.22064,24.864 16.36106,39.78856 17.93161,52.06216 l 1.28144,10.01428 3.18649,-7.22615 c 3.49619,-7.92835 13.47931,-45.93115 13.48673,-51.34002 0.003,-2.98016 0.30921,-3.08253 2.53958,-0.85213 1.39431,1.39424 3.67906,8.51478 5.07751,15.82343 2.39183,12.50122 5.16163,20.31616 7.2005,20.31616 0.49334,0 2.7612,-4.07376 5.03974,-9.05281 2.7248,-5.95403 5.10094,-16.42128 6.94203,-30.57926 3.22574,-24.80738 5.05302,-30.04346 6.91255,-19.8073 1.8385,10.12104 6.11021,20.01432 8.32324,19.27665 2.62772,-0.8759 7.11567,-13.40627 10.69696,-29.86571 3.82546,-17.58198 3.90323,-58.98817 0.13795,-73.94002 -1.43068,-5.68251 -2.27182,-10.66136 -1.86902,-11.06407 1.44551,-1.44561 19.09658,12.04105 32.43922,24.78595 7.48037,7.14517 13.75577,12.99121 13.94545,12.99121 0.18967,0 -0.61163,-6.46919 -1.78056,-14.37598 -8.12648,-54.9629 -22.60183,-93.31856 -43.61745,-115.57447 -5.83499,-6.17949 -5.97777,-6.57177 -1.97781,-5.43785 7.92922,2.24788 21.42393,8.94102 36.06481,17.88767 7.98078,4.87685 15.10404,8.867 15.82965,8.867 2.10507,0 -1.31826,-9.9311 -6.43974,-18.68199 -7.26327,-12.41045 -20.23896,-25.17232 -42.8682,-42.16184 -11.38067,-8.54432 -22.4758,-17.1434 -24.6557,-19.10905 -3.66613,-3.30593 -3.73079,-3.66574 -0.86218,-4.79792 1.70572,-0.67319 10.5185,-1.27851 19.58407,-1.34516 11.8983,-0.0875 17.41379,-0.84333 19.82993,-2.71753 3.23282,-2.50755 3.11141,-2.80174 -3.55007,-8.60443 -12.40027,-10.80146 -39.92027,-20.09729 -74.14682,-25.04561 -7.58712,-1.0969 -14.85585,-2.32432 -16.15273,-2.72755 -2.9237,-0.90909 1.86014,-4.75166 15.51959,-12.46589 13.04657,-7.36813 15.04129,-9.89232 9.01303,-11.40533 -5.84489,-1.46698 -29.42417,-1.45998 -41.96928,0.012 l -9.51912,1.11733 6.03521,-4.58227 c 3.31935,-2.52025 10.49586,-5.89928 15.94777,-7.50893 5.45194,-1.60968 9.91367,-3.55227 9.91497,-4.31689 0.005,-2.88952 -16.04611,-8.31879 -30.18746,-10.21088 -14.44073,-1.93216 -46.26462,-0.10535 -55.18383,3.16764 -3.41284,1.25239 -3.41273,1.2389 0.0186,-2.69249 1.89677,-2.17315 7.91043,-7.39378 13.36366,-11.6014 5.45323,-4.20763 9.91497,-8.38083 9.91497,-9.2738 0,-4.40437 -43.31647,-0.66989 -72.24972,6.22895 -9.86309,2.35175 -18.25095,3.95785 -18.63969,3.56911 -0.38874,-0.38871 3.35657,-4.08755 8.32287,-8.21963 4.96631,-4.13206 12.9662,-11.18188 17.77753,-15.66628 l 8.74785,-8.15344 -12.57419,-0.0373 c -13.1884,-0.039 -31.76735,3.20018 -48.8497,8.51679 -5.57494,1.73514 -10.13629,2.94573 -10.13629,2.69024 0,-0.25551 1.16394,-3.7635 2.58651,-7.79554 3.07719,-8.72164 3.3217,-15.81852 0.63751,-18.5027 -1.44914,-1.44912 -3.72927,-0.82518 -8.89003,2.43266 -8.59206,5.42391 -22.64987,11.43543 -53.82383,23.01654 -26.38586,9.80233 -41.8686,16.67053 -50.26975,22.29984 l -5.43684,3.64302 1.51593,-6.5297 c 1.71832,-7.40155 2.13064,-26.35966 0.57331,-26.35966 -0.5637,0 -7.3533,4.53108 -15.08801,10.06905 -7.73472,5.53799 -18.98682,13.37666 -25.00463,17.41931 -6.01785,4.04264 -17.07519,12.34281 -24.57189,18.44481 -16.0821,13.09011 -16.08746,13.0815 -9.44501,-15.18804 7.09183,-30.18206 7.02605,-29.60525 3.13936,-27.52515 -7.36853,3.94351 -29.68335,26.63522 -37.86888,38.50846 -14.27483,20.70585 -27.0307,49.48591 -30.77189,69.42816 -0.63321,3.37526 -1.73547,6.4979 -2.44946,6.93916 -0.714,0.44129 -8.88142,-1.12131 -18.14982,-3.47244 -16.23151,-4.11746 -59.728936,-8.70388 -70.54388,-7.43825 -4.82616,0.56479 -4.534419,0.95049 7.91834,10.46893 15.973937,12.20988 29.17491,25.99616 34.05833,35.56847 l 3.705,7.26239 -6.53217,2.69547 c -11.685216,4.82183 -34.323131,21.01198 -44.010096,31.47508 -5.206121,5.62322 -13.049417,15.61477 -17.429541,22.20341 -8.697968,13.08362 -20.781632,37.31063 -19.833777,39.76554 0.326951,0.84685 8.777769,-2.15989 18.779581,-6.68163 17.975762,-8.12668 38.043998,-15.43202 42.392756,-15.43202 1.233548,0 -1.709788,5.23769 -6.54076,11.63932 -10.220942,13.54399 -20.970809,35.01985 -24.568135,49.08172 -3.499847,13.68074 -5.381192,34.11784 -3.140753,34.11784 0.973978,0 7.087879,-4.1562 13.586463,-9.23602 12.386148,-9.68197 24.497456,-16.62912 28.990351,-16.62912 3.28046,0 3.34115,-0.80405 -0.85808,11.36936 -9.908289,28.72373 -14.906228,62.37451 -13.004882,87.56109 0.642698,8.51386 1.611124,16.19581 2.152033,17.07101 0.540891,0.87522 4.964502,-2.21324 9.830218,-6.86322 4.865741,-4.64997 14.011452,-12.87491 20.323832,-18.27765 l 11.47706,-9.82315 1.21831,9.05615 c 1.92053,14.27582 8.87615,40.48949 14.94169,56.31079 l 5.55598,14.49209 3.79676,-18.80295 c 2.08821,-10.34164 5.31705,-23.07073 7.1752,-28.28687 z m 311.92893,-52.87782 c 1.30723,-0.54256 0.10846,-3.65216 -3.42797,-8.89214 l -5.43813,-8.05783 -1.14103,7.97676 c -0.62756,4.38722 -2.03716,9.65119 -3.13244,11.69771 -1.98821,3.71503 -1.98091,3.7165 4.569,0.9154 3.60821,-1.54306 7.46498,-3.181 8.57057,-3.6399 z m 34.20102,-14.37157 c 0.58614,-0.94839 0.24396,-1.72434 -0.76039,-1.72434 -1.00437,0 -1.82612,0.77595 -1.82612,1.72434 0,0.94838 0.34218,1.72434 0.7604,1.72434 0.41822,0 1.23997,-0.77596 1.82611,-1.72434 z M 247.99988,1049.6146 c 1.52314,-3.9693 9.63695,-48.4003 9.63695,-52.77177 0,-1.99163 0.46078,-3.16039 1.02397,-2.59721 0.56319,0.56317 0.0371,13.88368 -1.16906,29.60108 -2.18772,28.5082 -2.20314,28.5774 -6.38148,28.5774 -3.16235,0 -3.92435,-0.6884 -3.11038,-2.8095 z m 173.44957,1.2082 c 0,-3.2464 5.5618,-7.0205 10.34606,-7.0205 4.78425,0 10.34606,3.7741 10.34606,7.0205 0,0.8807 -4.65573,1.6013 -10.34606,1.6013 -5.69033,0 -10.34606,-0.7206 -10.34606,-1.6013 z m 73.54055,-5.7272 c -2.1748,-15.9735 -4.89135,-54.99824 -3.89764,-55.9918 0.58034,-0.58042 1.05517,0.96235 1.05517,3.42817 0,4.05789 7.40678,46.59433 9.75326,56.01233 0.75991,3.0499 0.23091,3.8798 -2.47317,3.8798 -2.74077,0 -3.64261,-1.4894 -4.43762,-7.3285 z"
       id="path3474"
       inkscape:connector-curvature="0" />
  </g>
</svg>
